Normalized EMG Linear Envelopes
nRows=153
nColumns=4

endheader
time	 med_gas_r	  soleus_r	 tib_ant_r	
2.93731	  0.129702	  0.113978	  0.035492	
2.99981	  0.124408	  0.114413	  0.037569	
3.0623	  0.122526	  0.116880	  0.039766	
3.1248	  0.123768	  0.118652	  0.040969	
3.1873	  0.124774	  0.116962	  0.041426	
3.24979	  0.126734	  0.115566	  0.041576	
3.31229	  0.131093	  0.114320	  0.041543	
3.37478	  0.134513	  0.115787	  0.041119	
3.43728	  0.132077	  0.122885	  0.039892	
3.49978	  0.126648	  0.129964	  0.038185	
3.56227	  0.124038	  0.130264	  0.036638	
3.62477	  0.125367	  0.126991	  0.035397	
3.68726	  0.130090	  0.121836	  0.034265	
3.74976	  0.134798	  0.114770	  0.033517	
3.81226	  0.135884	  0.107942	  0.033298	
3.87475	  0.134506	  0.104746	  0.033453	
3.93725	  0.135845	  0.105754	  0.033683	
3.99974	  0.139503	  0.110588	  0.034144	
4.06224	  0.140621	  0.120063	  0.035074	
4.12474	  0.140203	  0.130749	  0.036526	
4.18723	  0.138820	  0.135678	  0.038013	
4.24973	  0.135787	  0.134592	  0.038674	
4.31222	  0.131756	  0.130222	  0.038348	
4.37472	  0.131215	  0.125548	  0.037706	
4.43722	  0.134691	  0.122573	  0.037493	
4.49971	  0.137845	  0.123266	  0.037776	
4.56221	  0.138309	  0.124839	  0.039221	
4.6247	  0.135386	  0.121271	  0.042908	
4.6872	  0.132225	  0.112143	  0.050460	
4.7497	  0.133293	  0.105355	  0.063195	
4.81219	  0.137198	  0.110228	  0.084038	
4.87469	  0.140967	  0.129803	  0.111134	
4.93718	  0.144730	  0.162604	  0.132890	
4.99968	  0.147274	  0.204745	  0.139333	
5.06218	  0.154408	  0.244880	  0.135868	
5.12467	  0.164813	  0.257668	  0.131407	
5.18717	  0.172064	  0.227832	  0.130074	
5.24966	  0.181516	  0.188978	  0.133361	
5.31216	  0.192568	  0.161436	  0.135626	
5.37466	  0.207853	  0.146943	  0.135533	
5.43715	  0.233493	  0.145181	  0.136484	
5.49965	  0.275953	  0.150411	  0.144528	
5.56214	  0.310368	  0.151852	  0.169691	
5.62464	  0.314712	  0.145003	  0.219081	
5.68714	  0.321169	  0.135405	  0.292426	
5.74963	  0.332594	  0.130914	  0.380250	
5.81213	  0.323148	  0.136204	  0.449725	
5.87462	  0.309147	  0.152019	  0.485219	
5.93712	  0.316457	  0.171491	  0.501191	
5.99962	  0.338653	  0.180770	  0.499454	
6.06211	  0.373048	  0.174637	  0.488391	
6.12461	  0.423545	  0.166277	  0.488108	
6.1871	  0.463626	  0.163847	  0.500667	
6.2496	  0.481684	  0.169244	  0.529236	
6.3121	  0.486754	  0.174185	  0.554926	
6.37459	  0.480803	  0.176433	  0.569220	
6.43709	  0.483755	  0.178883	  0.568722	
6.49958	  0.471568	  0.177697	  0.564169	
6.56208	  0.449194	  0.173078	  0.552262	
6.62458	  0.434999	  0.169445	  0.535139	
6.68707	  0.423348	  0.170523	  0.530976	
6.74957	  0.426915	  0.168228	  0.545446	
6.81206	  0.436492	  0.160642	  0.572458	
6.87456	  0.466608	  0.159864	  0.582615	
6.93706	  0.495152	  0.168687	  0.562108	
6.99955	  0.490757	  0.186162	  0.519451	
7.06205	  0.488943	  0.210530	  0.478418	
7.12454	  0.488764	  0.231999	  0.445860	
7.18704	  0.482288	  0.237228	  0.422194	
7.24954	  0.469708	  0.227618	  0.409837	
7.31203	  0.463488	  0.227172	  0.402479	
7.37453	  0.468302	  0.237907	  0.398608	
7.43702	  0.465293	  0.236883	  0.407149	
7.49952	  0.486470	  0.226137	  0.427456	
7.56202	  0.510873	  0.219364	  0.447060	
7.62451	  0.512542	  0.218564	  0.473208	
7.68701	  0.508443	  0.214452	  0.515708	
7.7495	  0.500487	  0.214305	  0.561649	
7.812	  0.496383	  0.217779	  0.596427	
7.8745	  0.493894	  0.213896	  0.617129	
7.93699	  0.494496	  0.210955	  0.628316	
7.99949	  0.503085	  0.212491	  0.635277	
8.06198	  0.510066	  0.207986	  0.625107	
8.12448	  0.512191	  0.190780	  0.597256	
8.18698	  0.492657	  0.177420	  0.557740	
8.24947	  0.486755	  0.175075	  0.515616	
8.31197	  0.490679	  0.177923	  0.477942	
8.37446	  0.498307	  0.178547	  0.455555	
8.43696	  0.498928	  0.175136	  0.460590	
8.49946	  0.496616	  0.168289	  0.492978	
8.56195	  0.507766	  0.161038	  0.529697	
8.62445	  0.506191	  0.151705	  0.546793	
8.68694	  0.502315	  0.147718	  0.530241	
8.74944	  0.510199	  0.152082	  0.507139	
8.81194	  0.510468	  0.159342	  0.500837	
8.87443	  0.489081	  0.161558	  0.512256	
8.93693	  0.454642	  0.160143	  0.520094	
8.99942	  0.445551	  0.161787	  0.513923	
9.06192	  0.448575	  0.168941	  0.487374	
9.12442	  0.422096	  0.174460	  0.453669	
9.18691	  0.398358	  0.172082	  0.435299	
9.24941	  0.380811	  0.161911	  0.432102	
9.3119	  0.368748	  0.151111	  0.432875	
9.3744	  0.377715	  0.143826	  0.422182	
9.4369	  0.392457	  0.142132	  0.397262	
9.49939	  0.423174	  0.145177	  0.378475	
9.56189	  0.456287	  0.149845	  0.375843	
9.62438	  0.467183	  0.159017	  0.383823	
9.68688	  0.475640	  0.169658	  0.396216	
9.74938	  0.465139	  0.176336	  0.409393	
9.81187	  0.460314	  0.170828	  0.422911	
9.87437	  0.477075	  0.162726	  0.430188	
9.93686	  0.493048	  0.162537	  0.437610	
9.99936	  0.505570	  0.163655	  0.442504	
10.0619	  0.493973	  0.162014	  0.426767	
10.1244	  0.474098	  0.159689	  0.395840	
10.1868	  0.471395	  0.155877	  0.364683	
10.2493	  0.464710	  0.150404	  0.329107	
10.3118	  0.444953	  0.146173	  0.295571	
10.3743	  0.402210	  0.137737	  0.265538	
10.4368	  0.362269	  0.125479	  0.241137	
10.4993	  0.347795	  0.117969	  0.221550	
10.5618	  0.334389	  0.114850	  0.206100	
10.6243	  0.327896	  0.112749	  0.201871	
10.6868	  0.319334	  0.111630	  0.207353	
10.7493	  0.298186	  0.113698	  0.213542	
10.8118	  0.299457	  0.120722	  0.211115	
10.8743	  0.325820	  0.131061	  0.196112	
10.9368	  0.362321	  0.137750	  0.177991	
10.9993	  0.426916	  0.136664	  0.160750	
11.0618	  0.502510	  0.129684	  0.149092	
11.1243	  0.540112	  0.123141	  0.138660	
11.1868	  0.502349	  0.117162	  0.130252	
11.2493	  0.420676	  0.112714	  0.124133	
11.3118	  0.346288	  0.111875	  0.114161	
11.3743	  0.307707	  0.114084	  0.102983	
11.4368	  0.293739	  0.116868	  0.092433	
11.4993	  0.304449	  0.118713	  0.086909	
11.5618	  0.320491	  0.120882	  0.084629	
11.6243	  0.317018	  0.122665	  0.082256	
11.6868	  0.323221	  0.124086	  0.078728	
11.7492	  0.329106	  0.126210	  0.074372	
11.8117	  0.321586	  0.126742	  0.073846	
11.8742	  0.320747	  0.125787	  0.074882	
11.9367	  0.314242	  0.124168	  0.072027	
11.9992	  0.310460	  0.124284	  0.070475	
12.0617	  0.324196	  0.127331	  0.069551	
12.1242	  0.334742	  0.131188	  0.066028	
12.1867	  0.345281	  0.134755	  0.065874	
12.2492	  0.344774	  0.138609	  0.068287	
12.3117	  0.348292	  0.142175	  0.067598	
12.3742	  0.354114	  0.143309	  0.067720	
12.4367	  0.341273	  0.140806	  0.068918	
